<?xml version="1.0" standalone="no"?>
<!DOCTYPE svg PUBLIC "-//W3C//DTD SVG 20010904//EN" "http://www.w3.org/TR/2001/REC-SVG-20010904/DTD/svg10.dtd">
<!-- Created using Krita: https://krita.org -->
<svg xmlns="http://www.w3.org/2000/svg" 
    xmlns:xlink="http://www.w3.org/1999/xlink"
    xmlns:krita="http://krita.org/namespaces/svg/krita"
    xmlns:sodipodi="http://sodipodi.sourceforge.net/DTD/sodipodi-0.dtd"
    width="156.24pt"
    height="161.76pt"
    viewBox="0 0 156.24 161.76">
<defs/>
<path id="shape0" transform="matrix(-2.45703020428416 0 0 2.45703020428416 120.991473494486 22.2885172148021)" fill="none" stroke="#ffffff" stroke-width="1" stroke-linecap="round" stroke-linejoin="round" d="M0 13L0 4C0 2.93954 0.421715 1.92143 1.17157 1.17157C1.92143 0.421715 2.93954 0 4 0L13 0M37 24L37 33C37 34.0605 36.5783 35.0786 35.8284 35.8284C35.0786 36.5783 34.0605 37 33 37L24 37M8 28.977L8 8L18.5 29L29 8.032L29 29" sodipodi:nodetypes="ccccccccccccccc"/><path id="shape1" transform="matrix(4.03178829221572 0 0 4.03178829221572 6.16253978726247 5.61186144911796)" fill="none" stroke="#ffffff" stroke-width="1" stroke-linecap="round" stroke-linejoin="round" d="M34.0066 6.148C33.1926 2.87067 31.1466 1.232 27.8686 1.232L5.74861 0C3.29261 0 2.06428 1.228 2.06361 3.684L0.0216095 29.489C-0.251724 34.4023 2.06794 36.0413 6.98061 34.406L15.5826 31.942C16.9433 31.402 18.1713 31.402 19.2666 31.942L29.1006 36.858C30.3206 37.48 31.5536 35.938 30.6316 34.406L28.1126 29.733C27.6246 28.756 27.8686 28.013 29.4996 27.447L32.7856 26.625C35.2409 26.0777 36.3656 24.9863 36.1596 23.351Z" sodipodi:nodetypes="ccccccccccccccc"/>
</svg>
